<svg width="24" height="24" viewBox="0 0 24 24" fill="none" xmlns="http://www.w3.org/2000/svg">
<path d="M16.3635 1.09131V2.18222H18.5454V3.27313H19.6363V4.36404H20.7272V5.45495H21.8181V7.63676H22.909V16.364H21.8181V18.5459H20.7272V19.6368H19.6363V20.7277H18.5454V21.8186H16.3635V22.9095H7.63628V21.8186H5.45446V20.7277H4.36355V19.6368H3.27264V18.5459H2.18173V16.364H1.09082V7.63676H2.18173V5.45495H3.27264V4.36404H4.36355V3.27313H5.45446V2.18222H7.63628V1.09131H16.3635ZM15.2726 3.27313H8.72718V4.36404H6.54537V5.45495H5.45446V6.54585H4.36355V8.72767H3.27264V15.2731H4.36355V17.4549H5.45446V18.5459H6.54537V19.6368H8.72718V20.7277H15.2726V19.6368H17.4545V18.5459H18.5454V17.4549H19.6363V15.2731H20.7272V8.72767H19.6363V6.54585H18.5454V5.45495H17.4545V4.36404H15.2726V3.27313ZM9.81809 6.54585H15.2726V8.72767H10.909V15.2731H13.0908V13.0913H11.9999V10.9095H15.2726V16.364H14.1817V17.4549H9.81809V16.364H8.72718V7.63676H9.81809V6.54585Z" fill="#001C30"/>
</svg>
