<svg width="24" height="24" viewBox="0 0 24 24" fill="none" xmlns="http://www.w3.org/2000/svg">
<path d="M16.5 8.63005C16.09 8.63005 15.75 8.29005 15.75 7.88005V6.50005C15.75 5.45006 15.3 4.43005 14.52 3.72005C13.73 3.00005 12.71 2.67005 11.63 2.77005C9.83 2.94005 8.25 4.78005 8.25 6.70005V7.67005C8.25 8.08005 7.91 8.42005 7.5 8.42005C7.09 8.42005 6.75 8.08005 6.75 7.67005V6.69005C6.75 4.00005 8.92 1.52005 11.49 1.27005C12.99 1.13005 14.43 1.60005 15.53 2.61005C16.62 3.60005 17.25 5.02005 17.25 6.50005V7.88005C17.25 8.29005 16.91 8.63005 16.5 8.63005Z" fill="white"/>
<path d="M14.9999 22.75H8.99994C4.37994 22.75 3.51994 20.6 3.29994 18.51L2.54994 12.52C2.43994 11.44 2.39994 9.89 3.44994 8.73C4.34994 7.73 5.83994 7.25 7.99994 7.25H15.9999C18.1699 7.25 19.6599 7.74 20.5499 8.73C21.5899 9.89 21.5599 11.44 21.4499 12.5L20.6999 18.51C20.4799 20.6 19.6199 22.75 14.9999 22.75ZM7.99994 8.75C6.30994 8.75 5.14994 9.08 4.55994 9.74C4.06994 10.28 3.90994 11.11 4.03994 12.35L4.78994 18.34C4.95994 19.94 5.39994 21.26 8.99994 21.26H14.9999C18.5999 21.26 19.0399 19.95 19.2099 18.36L19.9599 12.35C20.0899 11.13 19.9299 10.3 19.4399 9.75C18.8499 9.08 17.6899 8.75 15.9999 8.75H7.99994Z" fill="white"/>
<path d="M15.42 13.15C14.86 13.15 14.41 12.7 14.41 12.15C14.41 11.6 14.86 11.15 15.41 11.15C15.96 11.15 16.41 11.6 16.41 12.15C16.41 12.7 15.97 13.15 15.42 13.15Z" fill="white"/>
<path d="M8.42003 13.15C7.86003 13.15 7.41003 12.7 7.41003 12.15C7.41003 11.6 7.86003 11.15 8.41003 11.15C8.96003 11.15 9.41003 11.6 9.41003 12.15C9.41003 12.7 8.97003 13.15 8.42003 13.15Z" fill="white"/>
</svg>
