<svg width="26" height="27" viewBox="0 0 26 27" fill="none" xmlns="http://www.w3.org/2000/svg">
<g clip-path="url(#clip0_45_488)">
<path d="M23.9028 0.89917H1.52568C1.15892 0.89917 0.807188 1.04486 0.547852 1.3042C0.288516 1.56354 0.142822 1.91527 0.142822 2.28203V24.6592C0.142822 25.0259 0.288516 25.3777 0.547852 25.637C0.807188 25.8963 1.15892 26.042 1.52568 26.042H13.5691V16.2992H10.3005V12.5277H13.5691V9.69917C13.5014 9.03509 13.5798 8.36424 13.7988 7.73367C14.0178 7.1031 14.3721 6.52808 14.8369 6.04894C15.3017 5.5698 15.8656 5.19815 16.4892 4.96004C17.1128 4.72193 17.781 4.62314 18.4468 4.6706C19.4253 4.66458 20.4033 4.71495 21.376 4.82146V8.21574H19.3771C17.7931 8.21574 17.4914 8.97003 17.4914 10.0637V12.49H21.2628L20.7725 16.2615H17.4914V26.042H23.9028C24.0844 26.042 24.2642 26.0063 24.432 25.9368C24.5998 25.8673 24.7522 25.7654 24.8806 25.637C25.0091 25.5086 25.1109 25.3561 25.1804 25.1884C25.2499 25.0206 25.2857 24.8408 25.2857 24.6592V2.28203C25.2857 2.10043 25.2499 1.92061 25.1804 1.75283C25.1109 1.58505 25.0091 1.43261 24.8806 1.3042C24.7522 1.17579 24.5998 1.07393 24.432 1.00443C24.2642 0.934939 24.0844 0.89917 23.9028 0.89917Z" fill="white"/>
</g>
<defs>
<clipPath id="clip0_45_488">
<rect x="0.142822" y="0.89917" width="25.1429" height="25.1429" rx="4.71429" fill="white"/>
</clipPath>
</defs>
</svg>
