<svg width="26" height="27" viewBox="0 0 26 27" fill="none" xmlns="http://www.w3.org/2000/svg">
<g clip-path="url(#clip0_45_490)">
<path fill-rule="evenodd" clip-rule="evenodd" d="M5.67384 0.89917C4.24516 0.89917 2.87497 1.46657 1.86454 2.47661C0.854119 3.48664 0.286193 4.85662 0.285645 6.2853V20.6538C0.285645 22.0829 0.853328 23.4534 1.86381 24.4639C2.87429 25.4743 4.2448 26.042 5.67384 26.042H20.0424C21.4711 26.0415 22.841 25.4736 23.8511 24.4631C24.8611 23.4527 25.4285 22.0825 25.4285 20.6538V6.2853C25.428 4.85698 24.8603 3.48731 23.8503 2.47734C22.8404 1.46736 21.4707 0.899718 20.0424 0.89917H5.67384ZM21.5922 6.29358C21.5922 6.70517 21.4287 7.0999 21.1377 7.39093C20.8466 7.68197 20.4519 7.84548 20.0403 7.84548C19.6287 7.84548 19.234 7.68197 18.9429 7.39093C18.6519 7.0999 18.4884 6.70517 18.4884 6.29358C18.4884 5.88199 18.6519 5.48725 18.9429 5.19622C19.234 4.90518 19.6287 4.74168 20.0403 4.74168C20.4519 4.74168 20.8466 4.90518 21.1377 5.19622C21.4287 5.48725 21.5922 5.88199 21.5922 6.29358ZM12.8602 9.16563C11.7187 9.16563 10.624 9.61907 9.81683 10.4262C9.00969 11.2334 8.55624 12.3281 8.55624 13.4696C8.55624 14.611 9.00969 15.7058 9.81683 16.5129C10.624 17.32 11.7187 17.7735 12.8602 17.7735C14.0017 17.7735 15.0964 17.32 15.9035 16.5129C16.7107 15.7058 17.1641 14.611 17.1641 13.4696C17.1641 12.3281 16.7107 11.2334 15.9035 10.4262C15.0964 9.61907 14.0017 9.16563 12.8602 9.16563ZM6.48497 13.4696C6.48497 11.7793 7.15642 10.1583 8.35162 8.96307C9.54681 7.76788 11.1678 7.09643 12.8581 7.09643C14.5484 7.09643 16.1694 7.76788 17.3646 8.96307C18.5598 10.1583 19.2312 11.7793 19.2312 13.4696C19.2312 15.1598 18.5598 16.7809 17.3646 17.9761C16.1694 19.1712 14.5484 19.8427 12.8581 19.8427C11.1678 19.8427 9.54681 19.1712 8.35162 17.9761C7.15642 16.7809 6.48497 15.1598 6.48497 13.4696Z" fill="white"/>
</g>
<defs>
<clipPath id="clip0_45_490">
<rect x="0.285645" y="0.89917" width="25.1429" height="25.1429" rx="4.71429" fill="white"/>
</clipPath>
</defs>
</svg>
