<svg width="26" height="27" viewBox="0 0 26 27" fill="none" xmlns="http://www.w3.org/2000/svg">
<g clip-path="url(#clip0_45_486)">
<path d="M0 2.70003C0 1.70531 0.826571 0.89917 1.84643 0.89917H23.2964C24.3163 0.89917 25.1429 1.70531 25.1429 2.70003V24.2412C25.1429 25.2359 24.3163 26.042 23.2964 26.042H1.84643C0.826571 26.042 0 25.2359 0 24.2412V2.70003ZM7.76757 21.9469V10.5933H3.99457V21.9469H7.76757ZM5.88186 9.04231C7.19714 9.04231 8.01586 8.17174 8.01586 7.08117C7.99229 5.96703 7.19871 5.12003 5.907 5.12003C4.61529 5.12003 3.77143 5.9686 3.77143 7.08117C3.77143 8.17174 4.59014 9.04231 5.85671 9.04231H5.88186ZM13.5944 21.9469V15.6062C13.5944 15.2667 13.6196 14.9273 13.7201 14.6853C13.992 14.008 14.6127 13.3056 15.6561 13.3056C17.0217 13.3056 17.567 14.3459 17.567 15.8733V21.9469H21.34V15.4349C21.34 11.9463 19.4794 10.3246 16.9966 10.3246C14.9946 10.3246 14.0973 11.4246 13.5944 12.1993V12.2386H13.5693L13.5944 12.1993V10.5933H9.823C9.87014 11.6587 9.823 21.9469 9.823 21.9469H13.5944Z" fill="white"/>
</g>
<defs>
<clipPath id="clip0_45_486">
<rect y="0.89917" width="25.1429" height="25.1429" rx="4.71429" fill="white"/>
</clipPath>
</defs>
</svg>
