<svg width="100" height="100" viewBox="0 0 100 100" fill="none" xmlns="http://www.w3.org/2000/svg">
<path d="M49.9999 0C22.4283 0 0 22.4282 0 50.0001C0 77.5717 22.4285 100 49.9999 100C54.6134 100 59.0891 99.3718 63.3295 98.1939C83.4805 92.6188 98.5669 74.7055 99.8919 53.1313C99.9705 52.1006 100 51.0504 100 50.0001C100 22.4282 77.5717 0 49.9999 0ZM90.1844 49.9999C90.1844 70.4552 74.8233 87.3967 55.0155 89.8704C53.3666 90.0764 51.6981 90.1845 49.9998 90.1845C27.8463 90.1845 9.81521 72.1535 9.81521 49.9999C9.81521 27.8365 27.8463 9.81534 49.9998 9.81534C69.6995 9.81534 86.1208 24.0478 89.5366 42.7757C89.9588 45.1216 90.1844 47.5362 90.1844 49.9999Z" fill="#4FB800"/>
<path opacity="0.4" d="M99.8912 53.1311C98.5662 74.7054 83.4798 92.6187 63.3287 98.1938C60.8453 95.7107 57.5572 92.4224 55.0149 89.8705C52.7574 87.6129 51.0887 85.9442 51.0887 85.9442L51.0495 85.9146L37.6416 72.5068L21.8092 56.6645C18.9334 53.7885 18.9334 49.1362 21.8092 46.2602C21.9859 46.0835 22.1724 45.9165 22.3589 45.7596C25.2545 43.394 29.5243 43.561 32.2137 46.2602L42.8439 56.8903L68.0402 31.694C68.2168 31.5173 68.4033 31.3506 68.5898 31.1933C71.4854 28.8279 75.7551 28.9947 78.4543 31.694L99.8912 53.1311Z" fill="#4FB800"/>
<path d="M78.4513 31.6915C75.5766 28.8168 70.9152 28.8168 68.0405 31.6915L42.8463 56.8859L32.2175 46.2571C29.3429 43.3819 24.6815 43.3819 21.8068 46.2571C18.9316 49.1318 18.9316 53.7926 21.8068 56.6678L37.6411 72.5025C39.0214 73.8832 40.8938 74.6586 42.8464 74.6586C44.7989 74.6586 46.6715 73.8832 48.0518 72.5025L78.4516 42.1023C81.3265 39.2277 81.3265 34.5663 78.4513 31.6915Z" fill="#4FB800"/>
</svg>
