<svg width="60" height="60" viewBox="0 0 60 60" fill="none" xmlns="http://www.w3.org/2000/svg">
<circle cx="30" cy="30" r="30" fill="#8E96A4"/>
<path d="M34.0814 30.781C35.1599 29.9326 35.947 28.769 36.3334 27.4524C36.7198 26.1357 36.6861 24.7313 36.2372 23.4346C35.7883 22.138 34.9463 21.0135 33.8285 20.2176C32.7107 19.4217 31.3726 18.994 30.0004 18.994C28.6282 18.994 27.2902 19.4217 26.1724 20.2176C25.0546 21.0135 24.2126 22.138 23.7637 23.4346C23.3147 24.7313 23.2811 26.1357 23.6675 27.4524C24.0538 28.769 24.841 29.9326 25.9194 30.781C24.0715 31.5214 22.4592 32.7493 21.2542 34.3339C20.0493 35.9186 19.297 37.8005 19.0774 39.779C19.0615 39.9235 19.0743 40.0697 19.1149 40.2092C19.1555 40.3487 19.2231 40.4789 19.3141 40.5923C19.4977 40.8213 19.7647 40.9679 20.0564 41C20.3482 41.0321 20.6407 40.947 20.8697 40.7634C21.0987 40.5798 21.2453 40.3128 21.2774 40.021C21.519 37.8707 22.5443 35.8848 24.1575 34.4427C25.7707 33.0006 27.8586 32.2034 30.0224 32.2034C32.1862 32.2034 34.2742 33.0006 35.8874 34.4427C37.5006 35.8848 38.5259 37.8707 38.7674 40.021C38.7973 40.2913 38.9263 40.541 39.1294 40.7218C39.3326 40.9025 39.5955 41.0017 39.8674 41H39.9884C40.2768 40.9669 40.5403 40.8211 40.7217 40.5944C40.903 40.3678 40.9874 40.0786 40.9564 39.79C40.7359 37.8059 39.9795 35.9191 38.7684 34.3321C37.5572 32.745 35.937 31.5175 34.0814 30.781ZM30.0004 30C29.1302 30 28.2795 29.742 27.5559 29.2585C26.8324 28.775 26.2684 28.0878 25.9354 27.2838C25.6023 26.4798 25.5152 25.5952 25.685 24.7416C25.8548 23.8881 26.2738 23.1041 26.8892 22.4888C27.5045 21.8734 28.2885 21.4544 29.142 21.2846C29.9956 21.1148 30.8802 21.2019 31.6842 21.535C32.4882 21.868 33.1754 22.4319 33.6589 23.1555C34.1424 23.8791 34.4004 24.7298 34.4004 25.6C34.4004 26.767 33.9369 27.8861 33.1117 28.7113C32.2865 29.5365 31.1674 30 30.0004 30Z" fill="#001C30"/>
</svg>
