<svg width="29" height="28" viewBox="0 0 29 28" fill="none" xmlns="http://www.w3.org/2000/svg">
<path d="M21.5522 9.38913C23.462 9.38913 25.0103 7.84086 25.0103 5.93097C25.0103 4.02108 23.462 2.47281 21.5522 2.47281C19.6423 2.47281 18.094 4.02108 18.094 5.93097C18.094 7.84086 19.6423 9.38913 21.5522 9.38913Z" stroke="#001C30" stroke-width="2.30544" stroke-linecap="round" stroke-linejoin="round"/>
<path d="M7.71939 17.4582C9.62928 17.4582 11.1775 15.9099 11.1775 14C11.1775 12.0901 9.62928 10.5418 7.71939 10.5418C5.8095 10.5418 4.26123 12.0901 4.26123 14C4.26123 15.9099 5.8095 17.4582 7.71939 17.4582Z" stroke="#001C30" stroke-width="2.30544" stroke-linecap="round" stroke-linejoin="round"/>
<path d="M21.5522 25.5272C23.462 25.5272 25.0103 23.9789 25.0103 22.069C25.0103 20.1591 23.462 18.6109 21.5522 18.6109C19.6423 18.6109 18.094 20.1591 18.094 22.069C18.094 23.9789 19.6423 25.5272 21.5522 25.5272Z" stroke="#001C30" stroke-width="2.30544" stroke-linecap="round" stroke-linejoin="round"/>
<path d="M10.7051 15.7406L18.5782 20.3285" stroke="#001C30" stroke-width="2.30544" stroke-linecap="round" stroke-linejoin="round"/>
<path d="M18.5666 7.67157L10.7051 12.2594" stroke="#001C30" stroke-width="2.30544" stroke-linecap="round" stroke-linejoin="round"/>
</svg>
